<mxfile host="app.diagrams.net" modified="2023-10-22T05:52:37.319Z" agent="Mozilla/5.0 (Windows NT 10.0; Win64; x64) AppleWebKit/537.36 (KHTML, like Gecko) Chrome/118.0.0.0 Safari/537.36" etag="fEePMCHPmpv2bXjQizWI" version="22.0.6" type="device">
  <diagram name="Page-1" id="2YBvvXClWsGukQMizWep">
    <mxGraphModel dx="1434" dy="800" grid="1" gridSize="10" guides="1" tooltips="1" connect="1" arrows="1" fold="1" page="1" pageScale="1" pageWidth="850" pageHeight="1100" math="0" shadow="0">
      <root>
        <mxCell id="0" />
        <mxCell id="1" parent="0" />
        <mxCell id="bUbZ-e89j6tAC8CVxlZ--16" value="Micro-Controller" style="shape=umlLifeline;perimeter=lifelinePerimeter;whiteSpace=wrap;html=1;container=1;dropTarget=0;collapsible=0;recursiveResize=0;outlineConnect=0;portConstraint=eastwest;newEdgeStyle={&quot;edgeStyle&quot;:&quot;elbowEdgeStyle&quot;,&quot;elbow&quot;:&quot;vertical&quot;,&quot;curved&quot;:0,&quot;rounded&quot;:0};" parent="1" vertex="1">
          <mxGeometry x="540" y="80" width="100" height="420" as="geometry" />
        </mxCell>
        <mxCell id="0u1kKGDJF54m8RZjEG2Y-17" value="" style="html=1;points=[[0,0,0,0,5],[0,1,0,0,-5],[1,0,0,0,5],[1,1,0,0,-5]];perimeter=orthogonalPerimeter;outlineConnect=0;targetShapes=umlLifeline;portConstraint=eastwest;newEdgeStyle={&quot;curved&quot;:0,&quot;rounded&quot;:0};" parent="bUbZ-e89j6tAC8CVxlZ--16" vertex="1">
          <mxGeometry x="45" y="80" width="10" height="60" as="geometry" />
        </mxCell>
        <mxCell id="0u1kKGDJF54m8RZjEG2Y-50" value="" style="html=1;points=[[0,0,0,0,5],[0,1,0,0,-5],[1,0,0,0,5],[1,1,0,0,-5]];perimeter=orthogonalPerimeter;outlineConnect=0;targetShapes=umlLifeline;portConstraint=eastwest;newEdgeStyle={&quot;curved&quot;:0,&quot;rounded&quot;:0};" parent="bUbZ-e89j6tAC8CVxlZ--16" vertex="1">
          <mxGeometry x="45" y="270" width="10" height="40" as="geometry" />
        </mxCell>
        <mxCell id="bUbZ-e89j6tAC8CVxlZ--27" value="" style="shape=umlLifeline;perimeter=lifelinePerimeter;whiteSpace=wrap;html=1;container=1;dropTarget=0;collapsible=0;recursiveResize=0;outlineConnect=0;portConstraint=eastwest;newEdgeStyle={&quot;curved&quot;:0,&quot;rounded&quot;:0};participant=umlActor;" parent="1" vertex="1">
          <mxGeometry x="250" y="80" width="20" height="420" as="geometry" />
        </mxCell>
        <mxCell id="0u1kKGDJF54m8RZjEG2Y-16" value="" style="html=1;points=[[0,0,0,0,5],[0,1,0,0,-5],[1,0,0,0,5],[1,1,0,0,-5]];perimeter=orthogonalPerimeter;outlineConnect=0;targetShapes=umlLifeline;portConstraint=eastwest;newEdgeStyle={&quot;curved&quot;:0,&quot;rounded&quot;:0};" parent="bUbZ-e89j6tAC8CVxlZ--27" vertex="1">
          <mxGeometry x="5" y="80" width="10" height="60" as="geometry" />
        </mxCell>
        <mxCell id="lzfx7dj_jtfqGh-sdrey-8" value="" style="html=1;points=[[0,0,0,0,5],[0,1,0,0,-5],[1,0,0,0,5],[1,1,0,0,-5]];perimeter=orthogonalPerimeter;outlineConnect=0;targetShapes=umlLifeline;portConstraint=eastwest;newEdgeStyle={&quot;curved&quot;:0,&quot;rounded&quot;:0};" vertex="1" parent="bUbZ-e89j6tAC8CVxlZ--27">
          <mxGeometry x="5" y="200" width="10" height="40" as="geometry" />
        </mxCell>
        <mxCell id="lzfx7dj_jtfqGh-sdrey-9" value="Notify User&amp;nbsp;&lt;br&gt;that he&amp;nbsp; is connected&lt;br&gt;with network" style="html=1;align=left;spacingLeft=2;endArrow=block;rounded=0;edgeStyle=orthogonalEdgeStyle;curved=0;rounded=0;" edge="1" target="lzfx7dj_jtfqGh-sdrey-8" parent="bUbZ-e89j6tAC8CVxlZ--27">
          <mxGeometry relative="1" as="geometry">
            <mxPoint x="10" y="180" as="sourcePoint" />
            <Array as="points">
              <mxPoint x="40" y="210" />
            </Array>
          </mxGeometry>
        </mxCell>
        <mxCell id="lzfx7dj_jtfqGh-sdrey-16" value="" style="html=1;points=[[0,0,0,0,5],[0,1,0,0,-5],[1,0,0,0,5],[1,1,0,0,-5]];perimeter=orthogonalPerimeter;outlineConnect=0;targetShapes=umlLifeline;portConstraint=eastwest;newEdgeStyle={&quot;curved&quot;:0,&quot;rounded&quot;:0};" vertex="1" parent="bUbZ-e89j6tAC8CVxlZ--27">
          <mxGeometry x="5" y="270" width="10" height="40" as="geometry" />
        </mxCell>
        <mxCell id="lzfx7dj_jtfqGh-sdrey-20" value="" style="html=1;points=[[0,0,0,0,5],[0,1,0,0,-5],[1,0,0,0,5],[1,1,0,0,-5]];perimeter=orthogonalPerimeter;outlineConnect=0;targetShapes=umlLifeline;portConstraint=eastwest;newEdgeStyle={&quot;curved&quot;:0,&quot;rounded&quot;:0};" vertex="1" parent="bUbZ-e89j6tAC8CVxlZ--27">
          <mxGeometry x="5" y="360" width="10" height="40" as="geometry" />
        </mxCell>
        <mxCell id="lzfx7dj_jtfqGh-sdrey-21" value="Notify User&amp;nbsp;&lt;br style=&quot;border-color: var(--border-color);&quot;&gt;that he&amp;nbsp; is not connected&lt;br style=&quot;border-color: var(--border-color);&quot;&gt;with network" style="html=1;align=left;spacingLeft=2;endArrow=block;rounded=0;edgeStyle=orthogonalEdgeStyle;curved=0;rounded=0;" edge="1" target="lzfx7dj_jtfqGh-sdrey-20" parent="bUbZ-e89j6tAC8CVxlZ--27">
          <mxGeometry relative="1" as="geometry">
            <mxPoint x="10" y="340" as="sourcePoint" />
            <Array as="points">
              <mxPoint x="40" y="370" />
            </Array>
          </mxGeometry>
        </mxCell>
        <mxCell id="bUbZ-e89j6tAC8CVxlZ--50" value="" style="shape=umlDestroy;whiteSpace=wrap;html=1;strokeWidth=3;targetShapes=umlLifeline;" parent="1" vertex="1">
          <mxGeometry x="245" y="520" width="30" height="30" as="geometry" />
        </mxCell>
        <mxCell id="bUbZ-e89j6tAC8CVxlZ--52" value="" style="shape=umlDestroy;whiteSpace=wrap;html=1;strokeWidth=3;targetShapes=umlLifeline;" parent="1" vertex="1">
          <mxGeometry x="575" y="520" width="30" height="30" as="geometry" />
        </mxCell>
        <mxCell id="0u1kKGDJF54m8RZjEG2Y-19" value="" style="endArrow=blockThin;endFill=1;endSize=12;html=1;rounded=0;" parent="1" edge="1">
          <mxGeometry width="160" relative="1" as="geometry">
            <mxPoint x="267" y="170" as="sourcePoint" />
            <mxPoint x="586.5" y="170" as="targetPoint" />
          </mxGeometry>
        </mxCell>
        <mxCell id="0u1kKGDJF54m8RZjEG2Y-27" value="&amp;nbsp;Connnecting User to Network&amp;nbsp;&amp;nbsp;" style="edgeLabel;html=1;align=center;verticalAlign=middle;resizable=0;points=[];" parent="0u1kKGDJF54m8RZjEG2Y-19" vertex="1" connectable="0">
          <mxGeometry x="-0.037" y="-3" relative="1" as="geometry">
            <mxPoint y="-3" as="offset" />
          </mxGeometry>
        </mxCell>
        <mxCell id="0u1kKGDJF54m8RZjEG2Y-34" value="" style="endArrow=open;dashed=1;endFill=0;endSize=12;html=1;rounded=0;startArrow=none;startFill=0;" parent="1" edge="1">
          <mxGeometry width="160" relative="1" as="geometry">
            <mxPoint x="580" y="210" as="sourcePoint" />
            <mxPoint x="270" y="210" as="targetPoint" />
            <Array as="points">
              <mxPoint x="430.5" y="210" />
            </Array>
          </mxGeometry>
        </mxCell>
        <mxCell id="0u1kKGDJF54m8RZjEG2Y-35" value="&amp;nbsp;Success in Connection to network&amp;nbsp;" style="edgeLabel;html=1;align=center;verticalAlign=middle;resizable=0;points=[];" parent="0u1kKGDJF54m8RZjEG2Y-34" vertex="1" connectable="0">
          <mxGeometry x="0.0429" y="-2" relative="1" as="geometry">
            <mxPoint as="offset" />
          </mxGeometry>
        </mxCell>
        <mxCell id="lzfx7dj_jtfqGh-sdrey-14" value="" style="endArrow=open;dashed=1;endFill=0;endSize=12;html=1;rounded=0;startArrow=none;startFill=0;" edge="1" parent="1" target="lzfx7dj_jtfqGh-sdrey-16">
          <mxGeometry width="160" relative="1" as="geometry">
            <mxPoint x="580" y="370" as="sourcePoint" />
            <mxPoint x="267" y="370" as="targetPoint" />
            <Array as="points" />
          </mxGeometry>
        </mxCell>
        <mxCell id="lzfx7dj_jtfqGh-sdrey-15" value="&amp;nbsp;Failed in Connection to network&amp;nbsp;" style="edgeLabel;html=1;align=center;verticalAlign=middle;resizable=0;points=[];" vertex="1" connectable="0" parent="lzfx7dj_jtfqGh-sdrey-14">
          <mxGeometry x="0.0429" y="-2" relative="1" as="geometry">
            <mxPoint as="offset" />
          </mxGeometry>
        </mxCell>
        <mxCell id="lzfx7dj_jtfqGh-sdrey-22" value="" style="line;strokeWidth=1;fillColor=none;align=left;verticalAlign=middle;spacingTop=-1;spacingLeft=3;spacingRight=3;rotatable=0;labelPosition=right;points=[];portConstraint=eastwest;strokeColor=inherit;" vertex="1" parent="1">
          <mxGeometry x="140" y="326" width="570" height="8" as="geometry" />
        </mxCell>
        <mxCell id="lzfx7dj_jtfqGh-sdrey-24" value="Connection" style="shape=umlFrame;whiteSpace=wrap;html=1;pointerEvents=0;width=80;height=30;" vertex="1" parent="1">
          <mxGeometry x="140" y="150" width="570" height="340" as="geometry" />
        </mxCell>
        <mxCell id="lzfx7dj_jtfqGh-sdrey-25" value="if Successful" style="text;html=1;align=center;verticalAlign=middle;resizable=0;points=[];autosize=1;strokeColor=none;fillColor=none;" vertex="1" parent="1">
          <mxGeometry x="150" y="230" width="90" height="30" as="geometry" />
        </mxCell>
        <mxCell id="lzfx7dj_jtfqGh-sdrey-26" value="else" style="text;html=1;align=center;verticalAlign=middle;resizable=0;points=[];autosize=1;strokeColor=none;fillColor=none;" vertex="1" parent="1">
          <mxGeometry x="170" y="390" width="50" height="30" as="geometry" />
        </mxCell>
      </root>
    </mxGraphModel>
  </diagram>
</mxfile>
